<?xml version="1.0" encoding="utf-8"?>
<!-- Generator: Adobe Illustrator 26.0.1, SVG Export Plug-In . SVG Version: 6.00 Build 0)  -->
<svg version="1.1" id="Layer_1" xmlns="http://www.w3.org/2000/svg" xmlns:xlink="http://www.w3.org/1999/xlink" x="0px" y="0px"
	 viewBox="0 0 1080 1080" style="enable-background:new 0 0 1080 1080;" xml:space="preserve">
<style type="text/css">
	.st0{fill:#474747;}
	.st1{fill:#FD7B1E;}
	.st2{fill:none;stroke:#474747;stroke-width:7;stroke-miterlimit:10;}
	.st3{fill:none;stroke:#474747;stroke-miterlimit:10;}
	.st4{font-family:'Rubik-Regular';}
	.st5{font-size:150px;}
	.st6{letter-spacing:-1;}
	.st7{letter-spacing:-3;}
	.st8{letter-spacing:-13;}
	.st9{stroke:#000000;stroke-miterlimit:10;}
</style>
<g>
	<g>
		<path class="st0" d="M528.1,341.4l-43-42.4c0,0-75.7,33.6-66.3,139.4s178.2,150,239.9,35.4l-77.7-79l-69.9-0.6l77.6,79.3
			c0,0-18.6,21.6-59,16.9c-7-0.8-4-0.8-17.2-5.3c-4.7-1.5-9.1-3.8-13.1-6.6c-10.2-6.8-21.3-18.9-26.5-33.4
			C445.5,369.2,528,340.9,528.1,341.4z"/>
		<polygon class="st1" points="516.2,289.1 670.9,289.1 671,444.4 617.8,392 617.9,341 563.4,341 		"/>
		<path class="st2" d="M654.5,472.9c-21.3,40.3-63.6,70.1-112.4,70.1c-70.1,0-127-56.9-127-127c0-49.3,29.9-92.1,71-113.1"/>
		<path class="st3" d="M615.4,431.4c-6.5,35.1-37.2,59.5-74.2,59.5c-41.7,0-75.4-33.8-75.4-75.4c0,0,0,0,0,0
			c0-37.2,26-68.1,61.4-74.3"/>
	</g>
</g>
<text transform="matrix(1 0 0 1 152 707.43)" class="st0 st4 st5">G</text>
<text transform="matrix(1 0 0 1 254.6 707.43)" class="st0 st4 st5 st6">r</text>
<text transform="matrix(1 0 0 1 309.65 707.43)" class="st0 st4 st5 st6">o</text>
<text transform="matrix(1 0 0 1 393.95 707.43)" class="st0 st4 st5">w</text>
<text transform="matrix(1 0 0 1 514.55 707.43)" class="st1 st4 st5 st7">4</text>
<text transform="matrix(1 0 0 1 602.9 707.43)" class="st0 st4 st5 st8">T</text>
<text transform="matrix(1 0 0 1 674 707.43)" class="st0 st4 st5">ech</text>
<rect x="169.5" y="742.4" class="st0" width="119" height="3.1"/>
<rect x="795.1" y="744.8" class="st0" width="119" height="3.1"/>
<path class="st9" d="M299.3,742.7c0-6.3,3.4-10.2,8.4-10.2c2,0,3.9,0.9,5.1,2.4l-0.8,0.9c-1.1-1.3-2.7-2-4.3-2c-4.3,0-7,3.5-7,8.9
	s2.6,9,6.9,9c2,0,3.8-0.9,5-2.4l0.8,0.9c-1.4,1.8-3.6,2.9-5.9,2.8C302.7,753,299.3,749,299.3,742.7z"/>
<path class="st9" d="M317.4,738.2h1.1l0.1,2.7h0.1c1-1.8,2.4-3,4.1-3c0.5,0,1,0.1,1.4,0.3l-0.3,1.2c-0.4-0.2-0.9-0.2-1.3-0.2
	c-1.3,0-2.8,1-3.9,3.7v9.8h-1.3L317.4,738.2z"/>
<path class="st9" d="M325.2,749c0-3.2,2.9-4.7,9.3-5.4c0-2.2-0.6-4.6-3.4-4.6c-1.7,0.1-3.3,0.7-4.6,1.7l-0.6-1
	c1.6-1.1,3.4-1.8,5.4-1.9c3.4,0,4.6,2.5,4.6,5.6v9.2h-1.1l-0.1-1.9h-0.1c-1.4,1.3-3.2,2.1-5.1,2.2C327.1,753,325.2,751.8,325.2,749z
	 M334.5,749.5v-4.9c-5.9,0.7-7.9,2.1-7.9,4.4c0,2.1,1.4,2.9,3.1,2.9S332.7,751,334.5,749.5L334.5,749.5z"/>
<path class="st9" d="M348.1,748.7v-9.3h-8.9v-1l2-0.1h6.9l0.2-4.2h1.1v4.2h4.2v1.2h-4.2v9.4c0,1.8,0.5,3.1,2.5,3.1
	c0.6,0,1.2-0.2,1.8-0.5l0.3,1.1c-0.8,0.3-1.5,0.5-2.4,0.5C348.9,753,348.1,751.2,348.1,748.7z M341.2,735c0-2.9,1.3-4.3,3.6-4.3
	c0.7,0,1.4,0.2,2.1,0.5l-0.4,1.1c-0.5-0.3-1.1-0.4-1.7-0.4c-1.5,0-2.3,1.2-2.3,3.3v17.5h-1.3V735z"/>
<path class="st9" d="M356.6,733.6c0.1-0.7,0.6-1.2,1.3-1.1c0.6,0.1,1,0.5,1.1,1.1c-0.1,0.7-0.6,1.2-1.3,1.1
	C357.2,734.6,356.7,734.2,356.6,733.6z M357.2,738.2h1.3v14.4h-1.3V738.2z"/>
<path class="st9" d="M364,738.2h1.1l0.1,2.2h0.1c1.5-1.5,3-2.6,5-2.6c3,0,4.4,1.8,4.4,5.5v9.2h-1.3v-9.1c0-3-1-4.5-3.3-4.5
	c-1.7,0-3,0.9-4.7,2.7v10.9H364V738.2z"/>
<path class="st9" d="M378.8,755.6c0.1-1.4,0.9-2.7,2.1-3.5V752c-0.8-0.5-1.3-1.4-1.3-2.3c0.1-1.1,0.7-2.1,1.6-2.7v-0.1
	c-1.1-1-1.8-2.4-1.8-3.9c0-2.8,2.1-5,4.9-5.1c0.1,0,0.1,0,0.2,0c0.7,0,1.3,0.1,1.9,0.4h4.9v1.1h-3.4c1,0.9,1.6,2.2,1.6,3.6
	c0.1,2.8-2.1,5-4.9,5.1c-0.9,0-1.7-0.2-2.5-0.6c-0.7,0.5-1.1,1.2-1.2,2.1c0,1,0.6,1.9,2.8,1.9h3.1c3.2,0,4.8,1,4.8,3.3
	c0,2.5-2.7,4.9-6.8,4.9C381.1,759.6,378.8,758,378.8,755.6z M390.1,754.9c0-1.6-1.1-2.2-3.3-2.2h-3.1c-0.6,0-1.2-0.1-1.8-0.2
	c-1.1,0.6-1.8,1.7-1.9,3c0,1.8,1.7,3,4.8,3C388.1,758.5,390.1,756.7,390.1,754.9L390.1,754.9z M388.2,743c0.1-2.1-1.5-3.8-3.5-3.9
	c-2.1-0.1-3.8,1.5-3.9,3.5c0,0.1,0,0.3,0,0.4c-0.2,2.1,1.3,3.9,3.4,4.1c2.1,0.2,3.9-1.3,4.1-3.4C388.2,743.4,388.2,743.2,388.2,743z
	"/>
<path class="st9" d="M399.2,750l0.9-1c1.5,1.7,3.6,2.7,5.8,2.7c3,0,4.9-1.6,4.9-4s-1.6-3.2-3.6-4.1l-3-1.3c-1.7-0.8-4-2-4-4.9
	s2.5-4.9,5.7-4.9c2.1,0,4.1,0.8,5.5,2.4l-0.8,0.9c-1.2-1.3-2.9-2-4.7-2c-2.6,0-4.4,1.4-4.4,3.5c0,2.3,2,3.2,3.4,3.8l3,1.3
	c2.2,1,4.2,2.2,4.2,5.2s-2.5,5.3-6.3,5.3C403.3,753,400.9,751.9,399.2,750z"/>
<path class="st9" d="M415,745.5c0-4.8,3-7.6,6.5-7.6s6.5,2.8,6.5,7.6s-3,7.5-6.5,7.5S415,750.2,415,745.5z M426.5,745.5
	c0-3.8-2.2-6.4-5.1-6.4s-5.1,2.6-5.1,6.4s2.2,6.4,5.1,6.4S426.6,749.3,426.5,745.5L426.5,745.5z"/>
<path class="st9" d="M432.2,750.7v-19.7h1.3v19.8c0,0.6,0.3,0.9,0.6,0.9c0.2,0,0.4,0,0.5-0.1l0.2,1.1c-0.3,0.1-0.7,0.2-1,0.2
	C432.9,753,432.2,752.3,432.2,750.7z"/>
<path class="st9" d="M439.1,747.5v-9.2h1.3v9.1c0,3,1,4.5,3.3,4.5c1.7,0,3-0.9,4.6-2.9v-10.6h1.3v14.4h-1.1l-0.1-2.4h-0.1
	c-1.4,1.7-2.9,2.8-4.9,2.8C440.5,753,439.1,751.2,439.1,747.5z"/>
<path class="st9" d="M455.6,748.7v-9.3h-2.2v-1l2.3-0.1l0.2-4.2h1.1v4.2h4.2v1.2h-4.2v9.4c0,1.8,0.5,3.1,2.5,3.1
	c0.6,0,1.2-0.2,1.8-0.5l0.4,1.1c-0.8,0.3-1.5,0.5-2.4,0.5C456.4,753,455.6,751.2,455.6,748.7z"/>
<path class="st9" d="M464.1,733.6c0.1-0.7,0.6-1.2,1.3-1.1c0.6,0.1,1,0.5,1.1,1.1c-0.1,0.7-0.6,1.2-1.3,1.1
	C464.6,734.6,464.1,734.2,464.1,733.6z M464.6,738.2h1.3v14.4h-1.3V738.2z"/>
<path class="st9" d="M470.2,745.5c0-4.8,3-7.6,6.5-7.6s6.5,2.8,6.5,7.6s-3,7.5-6.5,7.5S470.2,750.2,470.2,745.5z M481.8,745.5
	c0-3.8-2.2-6.4-5.1-6.4s-5.1,2.6-5.1,6.4s2.2,6.4,5.1,6.4S481.8,749.3,481.8,745.5L481.8,745.5z"/>
<path class="st9" d="M487.5,738.2h1.1l0.1,2.2h0.1c1.5-1.5,3-2.6,5-2.6c3,0,4.4,1.8,4.4,5.5v9.2h-1.3v-9.1c0-3-1-4.5-3.3-4.5
	c-1.7,0-3,0.9-4.7,2.7v10.9h-1.3L487.5,738.2z"/>
<path class="st9" d="M501.7,751l0.8-1c1.2,1.2,2.9,1.8,4.6,1.8c2.3,0,3.4-1.3,3.4-2.8c0-1.8-1.9-2.6-3.5-3.2
	c-2.2-0.8-4.6-1.7-4.6-4.1c0-2.1,1.6-3.8,4.6-3.8c1.5,0,2.9,0.6,4.1,1.5l-0.7,1c-0.9-0.8-2.1-1.3-3.4-1.3c-2.2,0-3.3,1.3-3.3,2.6
	c0,1.6,1.7,2.3,3.4,2.9c2.2,0.8,4.7,1.6,4.7,4.4c0,2.2-1.7,4.1-4.9,4.1C505,753,503.2,752.3,501.7,751z"/>
<path class="st9" d="M514.3,756.4c1.4-0.7,2.3-2.1,2.3-3.7l-0.4-1.8l1.1,1.4c-0.2,0.3-0.6,0.5-1,0.5c-0.7,0-1.2-0.4-1.3-1.1
	c0-0.1,0-0.1,0-0.2c0-0.7,0.5-1.2,1.2-1.3c0,0,0.1,0,0.1,0c0.9,0,1.5,0.8,1.5,2.1c0,2.1-1.2,4-3.1,4.9L514.3,756.4z"/>
<path class="st9" d="M528.3,732.9h10.8v1.2h-9.4v7.5h7.9v1.2h-7.9v8.7h9.7v1.2h-11.1V732.9z"/>
<path class="st9" d="M543.6,738.2h1.1l0.1,2.2h0.1c1.3-1.5,2.9-2.6,4.5-2.6c1.9-0.2,3.6,1.1,4,2.9c1.6-1.8,3.2-2.9,4.9-2.9
	c2.9,0,4.3,1.8,4.3,5.5v9.2h-1.3v-9.1c0-3-1-4.5-3.2-4.5c-1.3,0-2.7,0.9-4.3,2.7v10.9h-1.4v-9.1c0-3-1-4.5-3.2-4.5
	c-1.3,0-2.7,0.9-4.3,2.7v10.9h-1.3V738.2z"/>
<path class="st9" d="M568,738.2h1.1l0.1,1.8h0.1c1.3-1.2,3.1-2,4.9-2.2c3.9,0,5.8,2.9,5.8,7.3c0,4.9-3,7.8-6.3,7.8
	c-1.6-0.1-3.1-0.7-4.3-1.8v2.7v5.3H568V738.2z M578.6,745.2c0-3.5-1.3-6.2-4.6-6.2c-1.4,0-3,0.8-4.7,2.4v8.6
	c1.2,1.1,2.7,1.7,4.2,1.8C576.5,751.8,578.6,749.1,578.6,745.2L578.6,745.2z"/>
<path class="st9" d="M583.1,745.5c0-4.8,3-7.6,6.5-7.6s6.5,2.8,6.5,7.6s-3,7.5-6.5,7.5S583.1,750.2,583.1,745.5z M594.6,745.5
	c0-3.8-2.2-6.4-5.1-6.4s-5.1,2.6-5.1,6.4s2.2,6.4,5.1,6.4S594.7,749.3,594.6,745.5L594.6,745.5z"/>
<path class="st9" d="M598.3,738.2h1.4l2.6,9.3c0.3,1.3,0.7,2.6,1,3.9h0.1c0.3-1.3,0.7-2.5,1.1-3.9l2.6-9.3h1.6l2.6,9.3
	c0.4,1.3,0.7,2.6,1.1,3.9h0.1c0.3-1.3,0.7-2.5,1-3.9l2.5-9.3h1.3l-4.1,14.4h-1.7l-2.5-8.9c-0.4-1.4-0.7-2.7-1.1-4.1h-0.1
	c-0.3,1.4-0.7,2.8-1.1,4.2l-2.5,8.9h-1.6L598.3,738.2z"/>
<path class="st9" d="M619.6,745.5c0-4.7,3.1-7.6,6.3-7.6c3.4,0,5.5,2.4,5.5,6.7c0,0.4,0,0.7-0.1,1.1H621c0,3.6,2.2,6.2,5.4,6.2
	c1.4,0,2.7-0.4,3.9-1.3l0.5,1c-1.3,0.9-2.9,1.4-4.5,1.4C622.6,753,619.6,750.2,619.6,745.5z M630.2,744.5c0-3.7-1.7-5.5-4.2-5.5
	s-4.6,2.1-4.9,5.5H630.2z"/>
<path class="st9" d="M635.3,738.2h1.1l0.1,2.7h0.1c1-1.8,2.4-3,4.1-3c0.5,0,1,0.1,1.4,0.3l-0.3,1.2c-0.4-0.2-0.9-0.2-1.3-0.2
	c-1.3,0-2.8,1-3.9,3.7v9.8h-1.3L635.3,738.2z"/>
<path class="st9" d="M644.3,733.6c0.1-0.7,0.6-1.2,1.3-1.1c0.6,0.1,1,0.5,1.1,1.1c-0.1,0.7-0.6,1.2-1.3,1.1
	C644.9,734.6,644.4,734.2,644.3,733.6z M644.9,738.2h1.3v14.4h-1.3V738.2z"/>
<path class="st9" d="M651.7,738.2h1.1l0.2,2.2h0.1c1.5-1.5,3-2.6,5-2.6c3,0,4.4,1.8,4.4,5.5v9.2H661v-9.1c0-3-1-4.5-3.3-4.5
	c-1.7,0-3,0.9-4.7,2.7v10.9h-1.3L651.7,738.2z"/>
<path class="st9" d="M666.5,755.6c0.1-1.4,0.9-2.7,2.2-3.5V752c-0.8-0.5-1.3-1.4-1.3-2.3c0.1-1.1,0.7-2.1,1.6-2.7v-0.1
	c-1.1-1-1.8-2.4-1.8-3.9c-0.1-2.8,2.1-5,4.9-5.1c0.1,0,0.1,0,0.2,0c0.7,0,1.3,0.1,1.9,0.4h4.9v1.1h-3.3c1,0.9,1.6,2.3,1.5,3.6
	c0.1,2.8-2.1,5-4.9,5.1c-0.9,0-1.8-0.2-2.5-0.6c-0.7,0.5-1.1,1.2-1.2,2.1c0,1,0.6,1.9,2.8,1.9h3.1c3.2,0,4.8,1,4.8,3.3
	c0,2.5-2.7,4.9-6.8,4.9C668.8,759.6,666.5,758,666.5,755.6z M677.8,754.9c0-1.6-1.2-2.2-3.3-2.2h-3.1c-0.6,0-1.2-0.1-1.8-0.2
	c-1.1,0.6-1.8,1.7-1.9,3c0,1.8,1.7,3,4.8,3C675.8,758.5,677.8,756.7,677.8,754.9L677.8,754.9z M675.8,743c0.1-2.1-1.5-3.8-3.5-3.9
	s-3.8,1.5-3.9,3.5c0,0.1,0,0.3,0,0.4c-0.2,2.1,1.3,3.9,3.4,4.1s3.9-1.3,4.1-3.4C675.9,743.4,675.9,743.2,675.8,743z"/>
<path class="st9" d="M687.2,742.7c0-6.3,3.4-10.2,8.5-10.2c2,0,3.8,0.9,5.1,2.4l-0.8,0.9c-1.1-1.3-2.7-2-4.3-2c-4.3,0-7,3.5-7,8.9
	s2.7,9,6.9,9c2,0,3.8-0.9,5-2.4l0.8,0.9c-1.4,1.8-3.6,2.9-5.9,2.8C690.6,753,687.2,749,687.2,742.7z"/>
<path class="st9" d="M705.2,738.2h1.1l0.2,2.7h0.1c1-1.8,2.4-3,4.1-3c0.5,0,1,0.1,1.4,0.3l-0.3,1.2c-0.4-0.2-0.9-0.2-1.3-0.2
	c-1.3,0-2.8,1-3.9,3.7v9.8h-1.3V738.2z"/>
<path class="st9" d="M713.2,745.5c0-4.7,3-7.6,6.3-7.6c3.4,0,5.5,2.4,5.5,6.7c0,0.4,0,0.7-0.1,1.1h-10.4c0,3.6,2.2,6.2,5.4,6.2
	c1.4,0,2.7-0.4,3.9-1.3l0.5,1c-1.3,0.9-2.9,1.4-4.5,1.4C716.2,753,713.2,750.2,713.2,745.5z M723.8,744.5c0-3.7-1.7-5.5-4.3-5.5
	c-2.4,0-4.6,2.1-4.9,5.5H723.8z"/>
<path class="st9" d="M727.4,749c0-3.2,2.9-4.7,9.3-5.4c0-2.2-0.6-4.6-3.4-4.6c-1.7,0.1-3.3,0.7-4.6,1.7l-0.6-1
	c1.6-1.1,3.4-1.8,5.3-1.9c3.4,0,4.6,2.5,4.6,5.6v9.2h-1.1l-0.2-1.9h-0.1c-1.4,1.3-3.2,2.1-5.1,2.2C729.3,753,727.4,751.8,727.4,749z
	 M736.7,749.5v-4.9c-5.9,0.7-7.9,2.1-7.9,4.4c0,2.1,1.4,2.9,3,2.9S734.9,751,736.7,749.5L736.7,749.5z"/>
<path class="st9" d="M743.2,748.7v-9.3H741v-1l2.3-0.1l0.2-4.2h1.1v4.2h4.2v1.2h-4.2v9.4c0,1.8,0.5,3.1,2.5,3.1
	c0.6,0,1.2-0.2,1.8-0.5l0.3,1.1c-0.8,0.3-1.6,0.5-2.4,0.5C744,753,743.2,751.2,743.2,748.7z"/>
<path class="st9" d="M750.7,745.5c0-4.8,3-7.6,6.5-7.6s6.5,2.8,6.5,7.6s-3,7.5-6.5,7.5S750.7,750.2,750.7,745.5z M762.2,745.5
	c0-3.8-2.2-6.4-5.1-6.4s-5.1,2.6-5.1,6.4s2.2,6.4,5.1,6.4S762.2,749.3,762.2,745.5z"/>
<path class="st9" d="M767.9,738.2h1.1l0.2,2.7h0.1c1-1.8,2.4-3,4.1-3c0.5,0,1,0.1,1.4,0.3l-0.3,1.2c-0.4-0.2-0.9-0.2-1.3-0.2
	c-1.3,0-2.8,1-3.9,3.7v9.8h-1.3V738.2z"/>
<path class="st9" d="M775.6,751l0.8-1c1.2,1.2,2.9,1.8,4.6,1.8c2.3,0,3.5-1.3,3.5-2.8c0-1.8-1.9-2.6-3.5-3.2
	c-2.2-0.8-4.6-1.7-4.6-4.1c0-2.1,1.6-3.8,4.6-3.8c1.5,0,3,0.6,4.1,1.5l-0.7,1c-1-0.8-2.2-1.3-3.4-1.3c-2.2,0-3.3,1.3-3.3,2.6
	c0,1.6,1.7,2.3,3.4,2.9c2.2,0.8,4.7,1.6,4.7,4.4c0,2.2-1.7,4.1-4.8,4.1C779,753,777.1,752.3,775.6,751z"/>
</svg>
